Coordinates
version=1
nRows=22
nColumns=24
inDegrees=yes

Units are S.I. units (second, meters, Newtons, ...)
Angles are in degrees.

endheader
time	pelvis_tilt	pelvis_list	pelvis_rotation	pelvis_tx	pelvis_ty	pelvis_tz	hip_flexion_r	hip_adduction_r	hip_rotation_r	knee_angle_r	ankle_angle_r	subtalar_angle_r	mtp_angle_r	hip_flexion_l	hip_adduction_l	hip_rotation_l	knee_angle_l	ankle_angle_l	subtalar_angle_l	mtp_angle_l	lumbar_extension	lumbar_bending	lumbar_rotation
      1.30650000	     -7.57335416	      4.59397782	     -0.76119444	      0.19966958	      0.99416566	      0.30225210	     27.24772521	     -4.11025757	      0.80934996	    -68.71577330	     -5.17813205	    -11.78153569	      4.04741617	     15.28854635	      9.32257109	      0.57714128	     -7.64021625	     -3.14700902	    -14.64484358	     -0.87414171	      4.76691080	     -2.41411020	      4.55420345
      1.31066667	     -7.50056780	      4.55633900	     -0.75695485	      0.20460176	      0.99482002	      0.30215898	     27.71743717	     -4.02936874	      0.92715008	    -68.43940803	     -4.48162144	    -12.04328236	      3.84234096	     14.77313820	      9.30397269	      0.67159755	     -7.42321753	     -2.98281361	    -14.59709471	     -0.98051606	      4.66625021	     -2.37867383	      4.46051363
      1.31483333	     -7.47623056	      4.47168220	     -0.73080387	      0.20947218	      0.99537959	      0.30204331	     28.21948844	     -3.90097462	      1.01661082	    -68.10460574	     -3.75650642	    -12.16187729	      0.76865957	     14.33209110	      9.24116281	      0.81896142	     -7.25817296	     -2.72796200	    -14.57536062	     -2.58508602	      4.60913774	     -2.26413999	      4.27971316
      1.31900000	     -7.42238370	      4.39522800	     -0.73668558	      0.21437686	      0.99597157	      0.30198148	     28.67131537	     -3.77129050	      1.13377942	    -67.70079552	     -3.08731086	    -12.29331493	      0.76770108	     13.84821603	      9.17482411	      0.88645290	     -7.06024221	     -2.58197250	    -14.53408265	     -2.58297889	      4.52530966	     -2.17053793	      4.30608488
      1.32316667	     -7.36765968	      4.33395227	     -0.72158149	      0.21926011	      0.99651765	      0.30187899	     29.10961078	     -3.67495303	      1.22663086	    -67.25567584	     -2.44894955	    -12.44405722	      0.76327095	     13.36608705	      9.13062861	      0.98437658	     -6.86729495	     -2.39557730	    -14.50141754	     -2.58176036	      4.43866097	     -2.09377302	      4.28393446
      1.32733333	     -7.33240201	      4.27025405	     -0.70199821	      0.22412207	      0.99699418	      0.30178269	     29.55538059	     -3.57646510	      1.31478354	    -66.76329068	     -1.84423645	    -12.59078373	      0.75598817	     12.90979442	      9.08279115	      1.09151106	     -6.68202314	     -2.21208335	    -14.46841136	     -2.58243315	      4.36840724	     -2.01590532	      4.23718313
      1.33150000	     -7.26639243	      4.19364150	     -0.67407806	      0.22896691	      0.99751123	      0.30170061	     29.94190977	     -3.46437422	      1.39532377	    -66.20434956	     -1.24928626	    -12.73569627	      0.74327634	     12.42482461	      9.02051074	      1.20516986	     -6.50431903	     -2.02874689	    -14.42728917	     -2.58549598	      4.25464619	     -1.93980931	      4.16908790
      1.33566667	     -7.21244409	      4.12297084	     -0.64174346	      0.23381458	      0.99796266	      0.30160548	     30.32751203	     -3.36786468	      1.46254478	    -65.60246936	     -0.70153641	    -12.86214103	      0.72637576	     11.95199096	      8.96441699	      1.31616778	     -6.32367316	     -1.83725149	    -14.38374184	     -2.59015485	      4.15928525	     -1.86028678	      4.09191863
      1.33983333	     -7.14674715	      4.06729206	     -0.60442920	      0.23865144	      0.99838978	      0.30149232	     30.68757441	     -3.29576189	      1.52349234	    -64.96052394	     -0.17634429	    -12.98716048	      0.68818676	     11.46496783	      8.92511662	      1.42506194	     -6.13572799	     -1.64510949	    -14.32522373	     -2.60349060	      4.04658417	     -1.79351429	      3.97145522
      1.34400000	     -7.13124246	      3.98705152	     -0.56070466	      0.24346255	      0.99872827	      0.30139692	     31.07948701	     -3.19345455	      1.57843013	    -64.25709244	      0.30949808	    -13.07255064	      0.66771210	     11.04733187	      8.85635883	      1.54037456	     -5.97836724	     -1.44724806	    -14.28952158	     -2.60963180	      3.99643850	     -1.70260736	      3.91371583
      1.34816667	     -7.07144910	      3.93656314	     -0.51448344	      0.24827946	      0.99907664	      0.30128836	     31.41297095	     -3.13286244	      1.62765975	    -63.52386719	      0.77484955	    -13.16583615	      0.61612261	     10.57329753	      8.81968787	      1.64361349	     -5.79962044	     -1.24717999	    -14.21840658	     -2.62686745	      3.88420881	     -1.64782626	      3.78666399
      1.35233333	     -7.04911022	      3.85457006	     -0.45909464	      0.25308251	      0.99936203	      0.30118331	     31.76017562	     -3.04042063	      1.65882967	    -62.72655371	      1.20172621	    -13.23145248	      0.59301028	     10.14966799	      8.74780834	      1.75766482	     -5.64155694	     -1.04179730	    -14.17185992	     -2.63278868	      3.82128977	     -1.55604712	      3.73499849
      1.35650000	     -7.01124850	      3.80303537	     -0.40179164	      0.25786802	      0.99960957	      0.30107279	     32.08201253	     -2.98446416	      1.69599599	    -61.90093485	      1.60730195	    -13.29364021	      0.56540118	      9.71214496	      8.70791198	      1.86732579	     -5.48508839	     -0.83418020	    -14.11172588	     -2.63926568	      3.73727163	     -1.50312689	      3.65434995
      1.36066667	     -6.96195804	      3.75735048	     -0.34089840	      0.26266305	      0.99985342	      0.30096463	     32.36868253	     -2.93672343	      1.73126074	    -61.02380517	      1.96574081	    -13.35031205	      0.52792186	      9.26051094	      8.67258706	      1.97500200	     -5.32538966	     -0.62993893	    -14.03741968	     -2.64796183	      3.64789972	     -1.45075075	      3.55123579
      1.36483333	     -6.89632515	      3.71085988	     -0.27769518	      0.26746135	      1.00009788	      0.30085357	     32.61943663	     -2.89621357	      1.74824827	    -60.10284787	      2.27800304	    -13.40685057	      0.46144876	      8.78565710	      8.63470044	      2.07033529	     -5.15227402	     -0.42138499	    -13.94253642	     -2.66402962	      3.52124110	     -1.40743716	      3.40648637
      1.36900000	     -6.87596480	      3.65111765	     -0.20234134	      0.27223446	      1.00024495	      0.30073670	     32.89833540	     -2.84429331	      1.75365636	    -59.13597254	      2.57859396	    -13.44602666	      0.42514206	      8.37193242	      8.58267750	      2.18690468	     -5.00406753	     -0.21248948	    -13.88098179	     -2.66979774	      3.45585435	     -1.34577864	      3.34590712
      1.37316667	     -6.85217214	      3.60713980	     -0.12561312	      0.27700386	      1.00034970	      0.30062288	     33.15906046	     -2.81078781	      1.75979464	    -58.13470579	      2.83818768	    -13.48684540	      0.38544922	      7.95292563	      8.54564948	      2.30070867	     -4.85149565	     -0.00241912	    -13.80310073	     -2.67460957	      3.38329621	     -1.30556312	      3.25945002
      1.37733333	     -6.82206638	      3.58281828	     -0.04663909	      0.28176899	      1.00043262	      0.30049559	     33.39673040	     -2.80101854	      1.76917294	    -57.09713237	      3.06582470	    -13.52762737	      0.34152347	      7.52794681	      8.52970557	      2.41522762	     -4.70047657	      0.20464159	    -13.71611421	     -2.67915706	      3.30860372	     -1.27361898	      3.16121409
      1.38150000	     -6.78255855	      3.54026336	      0.03628104	      0.28654274	      1.00051338	      0.30038828	     33.59900064	     -2.77751132	      1.75125835	    -56.00935272	      3.25266481	    -13.56934724	      0.28861672	      7.09046462	      8.49009705	      2.51408341	     -4.54404290	      0.41399637	    -13.62470585	     -2.68400958	      3.21351448	     -1.24289980	      3.05204044
      1.38566667	     -6.72653568	      3.52449822	      0.10922115	      0.29132099	      1.00057110	      0.30028172	     33.77167749	     -2.77807530	      1.75135162	    -54.89379539	      3.39218630	    -13.62576106	      0.19346331	      6.63016354	      8.47789255	      2.59420314	     -4.37677835	      0.62441422	    -13.49788129	     -2.69404053	      3.10192845	     -1.22699406	      2.89481047
      1.38983333	     -6.72294795	      3.50525992	      0.19816068	      0.29607328	      1.00050966	      0.30016296	     33.98397039	     -2.78276737	      1.73143718	    -53.74478578	      3.52257395	    -13.67406101	      0.09214066	      6.23651908	      8.46234290	      2.69722065	     -4.22959372	      0.83795346	    -13.39678970	     -2.70262890	      3.05359804	     -1.21252687	      2.78514296
      1.39400000	     -6.72959224	      3.49207626	      0.29974056	      0.30081802	      1.00041805	      0.30002782	     34.18625639	     -2.80282631	      1.69664687	    -52.55897447	      3.64658222	    -13.69872466	      0.03877910	      5.85740452	      8.45416122	      2.82090387	     -4.09119658	      1.03493482	    -13.31638788	     -2.70359867	      3.01883141	     -1.20279060	      2.73272724
